<svg width="455.14" height="274.156" xmlns="http://www.w3.org/2000/svg">
 <g>
  <title>background</title>
  <rect x="-1" y="-1" width="457.14" height="276.156" id="canvas_background" fill="none"/>
 </g>

 <g>
  <title>Layer 1</title>
  <rect stroke="#000" id="svg_16" height="73.999685" width="19.333261" y="94.244866" x="151.736965" stroke-width="0" fill="#fff"/>
  <rect stroke="#000" id="svg_25" height="24.66658" width="201.332573" y="168.577887" x="128.737073" stroke-width="0" fill="#fff"/>
  <rect stroke="#000" id="svg_24" height="21.333259" width="259.665649" y="189.577811" x="99.403827" stroke-width="0" fill="#fff"/>
  <rect stroke="#000" id="svg_23" height="71.666392" width="22.333248" y="95.911506" x="287.403106" stroke-width="0" fill="#fff"/>
  <rect stroke="#000" id="svg_22" height="25.666576" width="52.999799" y="68.578272" x="264.069868" stroke-width="0" fill="#fff"/>
  <rect stroke="#000" id="svg_13" height="25.666576" width="49.666478" y="68.578272" x="141.40367" stroke-width="0" fill="#fff"/>
  <g id="svg_1">
   <path d="m309.31669,170.77534l-159,0c-1.381,0 -2.5,-1.119 -2.5,-2.5l0,-74c0,-1.381 1.119,-2.5 2.5,-2.5l159,0c1.381,0 2.5,1.119 2.5,2.5l0,74c0,1.381 -1.12,2.5 -2.5,2.5zm-156.5,-5l154,0l0,-69l-154,0l0,69z" id="svg_2"/>
   <path d="m317.31669,96.77534l-177,0c-1.381,0 -2.5,-1.119 -2.5,-2.5l0,-26c0,-1.381 1.119,-2.5 2.5,-2.5l177,0c1.381,0 2.5,1.119 2.5,2.5l0,26c0,1.381 -1.12,2.5 -2.5,2.5zm-174.5,-5l172,0l0,-21l-172,0l0,21z" id="svg_3"/>
   <path d="m171.31669,170.77534l-21,0c-1.381,0 -2.5,-1.119 -2.5,-2.5l0,-74c0,-1.381 1.119,-2.5 2.5,-2.5l21,0c1.381,0 2.5,1.119 2.5,2.5l0,74c0,1.381 -1.12,2.5 -2.5,2.5zm-18.5,-5l16,0l0,-69l-16,0l0,69z" id="svg_4"/>
   <path d="m309.31669,170.77534l-21,0c-1.381,0 -2.5,-1.119 -2.5,-2.5l0,-74c0,-1.381 1.119,-2.5 2.5,-2.5l21,0c1.381,0 2.5,1.119 2.5,2.5l0,74c0,1.381 -1.12,2.5 -2.5,2.5zm-18.5,-5l16,0l0,-69l-16,0l0,69z" id="svg_5"/>
   <path d="m359.31669,212.77534l-259,0c-1.381,0 -2.5,-1.119 -2.5,-2.5l0,-21c0,-1.381 1.119,-2.5 2.5,-2.5l259,0c1.381,0 2.5,1.119 2.5,2.5l0,21c0,1.381 -1.12,2.5 -2.5,2.5zm-256.5,-5l254,0l0,-16l-254,0l0,16z" id="svg_6"/>
   <path d="m330.31669,191.77534l-202,0c-1.381,0 -2.5,-1.119 -2.5,-2.5l0,-21c0,-1.381 1.119,-2.5 2.5,-2.5l202,0c1.381,0 2.5,1.119 2.5,2.5l0,21c0,1.381 -1.12,2.5 -2.5,2.5zm-199.5,-5l197,0l0,-16l-197,0l0,16z" id="svg_7"/>
   <g id="svg_8">
    <polygon fill="#FFFFFF" points="263.8166799545288,131.33333575725555 227.8166799545288,155.33333575725555 191.8166799545288,131.33333575725555 191.8166799545288,68.77533710002899 263.8166799545288,68.77533710002899 " id="svg_9"/>
    <path d="m228.31669,157.83334c-0.483,0 -0.967,-0.14 -1.387,-0.42l-36,-24c-0.695,-0.463 -1.113,-1.244 -1.113,-2.08l0,-63.058c0,-1.381 1.119,-2.5 2.5,-2.5l72,0c1.381,0 2.5,1.119 2.5,2.5l0,63.058c0,0.836 -0.418,1.617 -1.113,2.08l-36,24c-0.421,0.28 -0.904,0.42 -1.387,0.42zm-33.5,-27.838l33.5,22.333l33.5,-22.333l0,-59.22l-67,0l0,59.22z" id="svg_10"/>
   </g>
   <path d="m228.31669,126.27534c-1.381,0 -2.5,-1.119 -2.5,-2.5l0,-35c0,-1.381 1.119,-2.5 2.5,-2.5s2.5,1.119 2.5,2.5l0,35c0,1.381 -1.12,2.5 -2.5,2.5z" id="svg_11"/>
   <path d="m245.81669,108.77534l-35,0c-1.381,0 -2.5,-1.119 -2.5,-2.5s1.119,-2.5 2.5,-2.5l35,0c1.381,0 2.5,1.119 2.5,2.5s-1.12,2.5 -2.5,2.5z" id="svg_12"/>
  </g>
  <rect fill="#fff" stroke="#000" stroke-width="0" x="201.497064" y="80.498821" width="54.66587" height="50.665928" id="svg_15"/>
  <g id="svg_20" stroke="null" transform="rotate(-180 227.99105834960938,106.4415054321289) ">
   <path d="m197,99.52017l61.98211,0l-50.20551,36.36284l19.21446,-58.88301l19.21445,58.88301l-50.20551,-36.36284z" fill="none" stroke-width="3" stroke-linejoin="round" id="svg_19" stroke="#000"/>
  </g>
  <rect id="svg_14" height="6.999973" width="16.333271" y="76.911568" x="290.069772" stroke-width="0" stroke="#000" fill="#fff"/>
  <rect id="svg_17" height="6.999973" width="16.333271" y="174.91119" x="160.403604" stroke-width="0" stroke="#000" fill="#fff"/>
  <rect id="svg_18" height="6.999973" width="16.333271" y="195.24445" x="157.736948" stroke-width="0" stroke="#000" fill="#fff"/>
  <rect stroke="#000" id="svg_21" height="8.999966" width="3.999982" y="127.911374" x="300.403063" stroke-width="0" fill="#fff"/>
 </g>
</svg>